<?xml version="1.0" encoding="UTF-8" standalone="no"?>
<svg
   xmlns:dc="http://purl.org/dc/elements/1.1/"
   xmlns:cc="http://creativecommons.org/ns#"
   xmlns:rdf="http://www.w3.org/1999/02/22-rdf-syntax-ns#"
   xmlns:svg="http://www.w3.org/2000/svg"
   xmlns="http://www.w3.org/2000/svg"
   id="svg197"
   version="1.1"
   viewBox="0 0 11.99445 11.99444"
   height="11.99444mm"
   width="11.99445mm">
  <defs
     id="defs191" />
  <metadata
     id="metadata194">
    <rdf:RDF>
      <cc:Work
         rdf:about="">
        <dc:format>image/svg+xml</dc:format>
        <dc:type
           rdf:resource="http://purl.org/dc/dcmitype/StillImage" />
        <dc:title></dc:title>
      </cc:Work>
    </rdf:RDF>
  </metadata>
  <g
     transform="translate(-119.49051,-141.32425)"
     id="layer1">
    <path
       id="path112"
       style="fill:#73b32a;fill-opacity:1;fill-rule:nonzero;stroke:none;stroke-width:0.35277775"
       d="m 127.42767,144.24168 c 0.43533,-0.38806 1.03117,-0.54398 1.59244,-0.42898 0.0476,0.57185 -0.17533,1.14371 -0.6089,1.53176 -0.43533,0.38806 -1.02905,0.54187 -1.59244,0.42898 -0.0497,-0.57185 0.17322,-1.14371 0.6089,-1.53176 m -0.8255,4.16666 c 0.12135,-0.21449 0.34219,-0.33373 0.57185,-0.33373 0.11077,0 0.22119,0.0279 0.32279,0.0843 0.31433,0.17992 0.42475,0.58068 0.24695,0.895 -0.17745,0.31397 -0.57821,0.42686 -0.89465,0.24694 -0.31432,-0.17744 -0.42474,-0.57855 -0.24694,-0.89252 m -3.86116,-3.73768 c 0.0586,-0.16475 0.1778,-0.29916 0.33585,-0.37501 0.091,-0.0409 0.18627,-0.0624 0.28399,-0.0624 0.0734,0 0.1471,0.0106 0.2166,0.0367 h 0.002 c 0.16475,0.0586 0.29669,0.17745 0.37253,0.33549 0.0759,0.15628 0.0847,0.33585 0.0261,0.50059 -0.11924,0.34043 -0.49389,0.52035 -0.83644,0.40111 -0.34008,-0.11924 -0.51999,-0.496 -0.40076,-0.83643 m 0.44839,5.0747 c 0.12805,-0.12594 0.29492,-0.18908 0.46143,-0.18908 0.16898,0 0.33831,0.0653 0.46602,0.19508 0.12347,0.12383 0.1905,0.28857 0.1905,0.4639 -0.002,0.17569 -0.0713,0.34008 -0.19474,0.46355 -0.12805,0.12595 -0.29456,0.18874 -0.46178,0.18874 -0.16898,0 -0.33796,-0.0649 -0.46567,-0.19509 -0.25541,-0.25788 -0.25118,-0.6738 0.004,-0.9271 m 7.59037,2.86774 h -10.58333 v -3.21945 l 1.24248,-0.57785 0.99448,0.74965 c -0.27728,0.51964 -0.20355,1.18039 0.23178,1.62066 0.27093,0.27517 0.62829,0.41169 0.98566,0.41169 0.35348,0 0.7045,-0.13229 0.97543,-0.39864 0.54363,-0.53763 0.54786,-1.41711 0.0106,-1.96109 -0.45931,-0.46567 -1.16558,-0.53305 -1.70074,-0.21026 l -0.74542,-0.56091 2.11279,-0.9839 1.53388,0.89288 c -0.15629,0.59549 0.0931,1.24354 0.65193,1.56175 0.21696,0.12171 0.45085,0.17992 0.68051,0.17992 0.48542,0 0.95567,-0.2533 1.20897,-0.70415 0.12135,-0.21414 0.17991,-0.4505 0.17991,-0.68227 0,-0.48331 -0.25153,-0.95144 -0.70202,-1.20685 -0.55034,-0.31186 -1.21991,-0.19932 -1.651,0.22119 l -1.09644,-0.63712 1.41923,-0.6611 c 0.2166,0.0564 0.43568,0.0935 0.6544,0.0935 0.62406,0 1.23719,-0.22542 1.71379,-0.65017 v -0.002 c 0.68475,-0.60924 0.99237,-1.54269 0.8061,-2.44192 l -0.0413,-0.20602 -0.19932,-0.0646 c -0.86889,-0.28858 -1.83515,-0.0889 -2.51989,0.51964 -0.6089,0.54398 -0.91864,1.34585 -0.84702,2.14736 l -3.00532,1.39735 0.21449,-0.97049 c 0.0173,0.002 0.037,0.004 0.054,0.004 0.5722,0 1.10948,-0.35525 1.31092,-0.92499 0.12135,-0.34924 0.10195,-0.72601 -0.0582,-1.05974 -0.16051,-0.33372 -0.43991,-0.5849 -0.79128,-0.70837 -0.34855,-0.12383 -0.72566,-0.10196 -1.05904,0.0561 -0.33408,0.16051 -0.58526,0.44203 -0.70873,0.79093 -0.21449,0.61348 0.0303,1.27635 0.55245,1.61854 l -0.34678,1.58186 -2.06128,0.95955 v -6.55814 h 10.58333 z m -11.28889,0.70555 h 11.99445 v -11.99444 h -11.99445 z" />
  </g>
</svg>
