<svg xmlns="http://www.w3.org/2000/svg" viewBox="0 0 234.41 62.71"><title>LibCST-logo-horizontal-white</title><g id="Layer_2" data-name="Layer 2"><g id="Artwork"><path d="M85,53.44H61.48V11.18h5v38H85Z" style="fill:#fff"/><path d="M92.38,18.19a2.74,2.74,0,0,1-2.89-3,2.87,2.87,0,1,1,5.73,0A2.7,2.7,0,0,1,92.38,18.19Zm2.36,6.15v29.1H90.09V24.34Z" style="fill:#fff"/><path d="M131.5,38.83C131.5,48,125.82,54.1,118,54.1a11.14,11.14,0,0,1-10.45-6.28l-.18,5.62H103V9.19l4.64-1V29.59a11,11,0,0,1,10.33-6C125.88,23.56,131.5,29.65,131.5,38.83ZM117.13,27.6c-6,0-9.48,4.65-9.48,11.23v.48c.18,6.28,3.57,10.75,9.48,10.75s9.54-4.71,9.54-11.23S123.11,27.6,117.13,27.6Z" style="fill:#fff"/><path d="M141.94,32.43c0,10.63,6.34,17.45,16.11,17.45a23.64,23.64,0,0,0,11-2.66l1.57,3.86a27.59,27.59,0,0,1-12.74,3c-13.16,0-21.12-9.05-21.12-21.67,0-13.1,8-22.15,21.06-22.15a24.52,24.52,0,0,1,12.26,3l-1.63,3.92a20.66,20.66,0,0,0-10.39-2.72C148.28,14.5,141.94,21.44,141.94,32.43Z" style="fill:#fff"/><path d="M200.73,42.57c0,6.58-4.17,11.47-14.07,11.47-4.34,0-9.59-1-12.25-2.35l1-4.11a28.57,28.57,0,0,0,11.28,2.18c6.58,0,9.12-2.84,9.12-7,0-11.28-20.59-8.27-20.59-22.39,0-7.49,5.74-10.08,13.28-10.08a32.52,32.52,0,0,1,11.35,1.93l-1,4.1a26.61,26.61,0,0,0-9.66-1.81c-3.62,0-9,.43-9,5.68C180.14,30.68,200.73,27.9,200.73,42.57Z" style="fill:#fff"/><path d="M216.84,53.44v-38H204.23V11.18h30.18v4.29H221.79v38Z" style="fill:#fff"/><path d="M26.22,45.15V32.63L38.47,26a7.08,7.08,0,0,0,5.34,3h.41a7,7,0,0,0,5.88-3.18l.32-.48-.26-.52A7,7,0,0,0,44.28,21h0a7,7,0,0,0-6.12,2.94l-6.63,3.58.21-2.13a3.88,3.88,0,0,0,1.74-.53,3.8,3.8,0,0,0-1-6.94h0a3.79,3.79,0,0,0-2.68,7l-.38,3.71-3.18,1.72V18.25l5.4-2.7A7,7,0,0,0,41,8.2L41,7.63l-.53-.23a7.06,7.06,0,0,0-7,.73h0a7.08,7.08,0,0,0-2.89,5.72L26.22,16V12.14A7,7,0,0,0,25.6.28L25.1,0l-.5.29a7,7,0,0,0-.38,11.86V16l-4.34-2.17A7.08,7.08,0,0,0,17,8.13h0a7.08,7.08,0,0,0-7-.73l-.52.23L9.4,8.2a7,7,0,0,0,9.4,7.35l5.42,2.71V30.37L21,28.64l-.38-3.71a3.79,3.79,0,0,0,1.51-1.41,3.75,3.75,0,0,0,.42-2.87A3.81,3.81,0,0,0,18,17.89h0a3.8,3.8,0,0,0-1,6.94,3.88,3.88,0,0,0,1.73.53l.22,2.13-6.63-3.58A7,7,0,0,0,6.14,21h0A7,7,0,0,0,.26,24.83L0,25.35l.32.48A7,7,0,0,0,6.2,29h.4A7.09,7.09,0,0,0,12,26l12.27,6.62V45.15l-2.86-1.33-.95-4.33a3.79,3.79,0,0,0,1.51-4.43,3.8,3.8,0,0,0-4.84-2.32,3.82,3.82,0,0,0-2.16,1.94,3.75,3.75,0,0,0-.16,2.9,3.81,3.81,0,0,0,3.59,2.54l.15,0,.58,2.66-8.22-3.82a7,7,0,0,0-9.22-7.31l-.55.18L1,32.38a7,7,0,0,0,2.21,6.68h0a7,7,0,0,0,4.69,1.78,7.29,7.29,0,0,0,1.79-.25l3.88,1.81-3,1.74a3.79,3.79,0,0,0-6,4.57h0a3.82,3.82,0,0,0,3.31,1.93,3.69,3.69,0,0,0,1.86-.5,3.78,3.78,0,0,0,1.79-4.27l4.2-2.45,5.79,2.7-2,1.54a3.79,3.79,0,0,0-4.63,5.93,3.75,3.75,0,0,0,2.67,1.1,3.78,3.78,0,0,0,3.33-5.57l2.72-2,.62.29v7.92a3.72,3.72,0,0,0-1.67.94,3.8,3.8,0,0,0,2.65,6.49h0a3.82,3.82,0,0,0,2.67-1.09h0a3.78,3.78,0,0,0-1.67-6.35V47.35l.6-.28,2.72,2a3.78,3.78,0,0,0,3.33,5.57,3.75,3.75,0,0,0,2.67-1.1,3.79,3.79,0,0,0-4.63-5.93l-2-1.54,5.79-2.7,4.2,2.45a3.78,3.78,0,0,0,1.79,4.27,3.69,3.69,0,0,0,1.86.5,3.82,3.82,0,0,0,3.31-1.93h0a3.79,3.79,0,0,0-6-4.57l-3-1.74,3.88-1.81a7.29,7.29,0,0,0,1.79.25,7,7,0,0,0,4.69-1.78h0a7,7,0,0,0,2.21-6.68l-.11-.57-.55-.18a7,7,0,0,0-9.22,7.31l-8.22,3.82.58-2.66.15,0a3.8,3.8,0,0,0,1.27-7.38,3.8,3.8,0,0,0-4.84,2.32A3.79,3.79,0,0,0,30,39.49l-1,4.33Zm3.57-24a1.79,1.79,0,0,1,1.74-1.35,1.65,1.65,0,0,1,.44,0A1.8,1.8,0,0,1,33.27,22a1.73,1.73,0,0,1-.82,1.1,1.75,1.75,0,0,1-1.36.2A1.8,1.8,0,0,1,29.79,21.13ZM44.16,23a5.06,5.06,0,0,1,3.91,2.26,5,5,0,0,1-8-.47A5.08,5.08,0,0,1,44.16,23ZM34.61,9.75A5.06,5.06,0,0,1,39.06,9a5,5,0,0,1-6.53,4.74A5,5,0,0,1,34.61,9.75ZM13.44,13a5,5,0,0,1-2.08-4,5,5,0,0,1,6.53,4.74A5,5,0,0,1,13.44,13Zm3.71,9a1.8,1.8,0,0,1,1.3-2.18,1.8,1.8,0,0,1,2.18,1.3,1.79,1.79,0,0,1-2.66,2A1.73,1.73,0,0,1,17.15,22ZM6.49,27a5,5,0,0,1-4.14-1.78,5,5,0,0,1,8.05-.47A5.05,5.05,0,0,1,6.49,27Zm10.16,9.92a1.78,1.78,0,0,1,1.09-2.29h0a1.7,1.7,0,0,1,.59-.1,1.77,1.77,0,0,1,.78.17,1.8,1.8,0,1,1-2.47,2.22ZM8.79,48.4A1.79,1.79,0,1,1,7,45.28a1.75,1.75,0,0,1,1.36-.17,1.79,1.79,0,0,1,.41,3.29Zm10,3.76a1.8,1.8,0,0,1-2.54,0h0a1.76,1.76,0,0,1-.53-1.26,1.79,1.79,0,0,1,1.8-1.81,1.78,1.78,0,0,1,1.26.52A1.8,1.8,0,0,1,18.82,52.16Zm-10-13.42a5,5,0,0,1-4.35-1.17h0a5,5,0,0,1-1.67-4.19,5,5,0,0,1,6,5.36ZM23.14,6.4a5.06,5.06,0,0,1,2-4.05,5,5,0,0,1,.08,8.07A5.06,5.06,0,0,1,23.14,6.4Zm3.34,53.79A1.79,1.79,0,1,1,24,57.64a1.74,1.74,0,0,1,1.26-.52h0a1.79,1.79,0,0,1,1.27.53A1.81,1.81,0,0,1,26.48,60.19ZM32.87,49.1a1.79,1.79,0,0,1,1.8,1.81,1.76,1.76,0,0,1-.53,1.26h0a1.8,1.8,0,0,1-2.53-2.55A1.78,1.78,0,0,1,32.87,49.1ZM41,46a1.78,1.78,0,0,1,1.57-.91,1.75,1.75,0,0,1,.88.23A1.79,1.79,0,1,1,41,46ZM30.38,35.73a1.8,1.8,0,0,1,.92-1,1.77,1.77,0,0,1,.78-.17,1.7,1.7,0,0,1,.59.1h0a1.78,1.78,0,0,1,1,.91,1.83,1.83,0,0,1,.07,1.38,1.8,1.8,0,1,1-3.39-1.19Zm12.83-1.18a5,5,0,0,1,4.36-1.17,5.07,5.07,0,0,1-1.67,4.19,5,5,0,0,1-4.35,1.17A5,5,0,0,1,43.21,34.55Z" style="fill:#fff"/></g></g></svg>