<svg xmlns="http://www.w3.org/2000/svg" viewBox="0 0 85 105.72"><title>LibCST-icon</title><g id="Layer_2" data-name="Layer 2"><g id="Artwork"><path d="M44.2,76.11V55L64.85,43.86a11.89,11.89,0,0,0,9,5l.68,0a11.91,11.91,0,0,0,9.92-5.36l.53-.82-.44-.86a11.89,11.89,0,0,0-9.91-6.52h0a11.87,11.87,0,0,0-10.31,5l-11.18,6,.37-3.6a6.4,6.4,0,0,0,1.2-12.59h0A6.39,6.39,0,0,0,50.2,42l-.64,6.27L44.2,51.18V30.77l9.1-4.56A11.86,11.86,0,0,0,69.16,13.83l-.11-1-.88-.39A11.92,11.92,0,0,0,56.36,13.7h0a11.91,11.91,0,0,0-4.87,9.65L44.2,27V20.46a11.83,11.83,0,0,0-1-20L42.32,0l-.84.49a11.84,11.84,0,0,0-.65,20V27l-7.32-3.66a11.91,11.91,0,0,0-4.87-9.65h0a11.92,11.92,0,0,0-11.81-1.23l-.88.39-.11,1A11.86,11.86,0,0,0,27.65,26.94a11.68,11.68,0,0,0,4-.73l9.14,4.58V51.2l-5.39-2.91L34.8,42a6.46,6.46,0,0,0,2.54-2.38,6.4,6.4,0,0,0-7.06-9.49h0a6.39,6.39,0,0,0-4.64,7.77,6.37,6.37,0,0,0,5.84,4.82l.37,3.6-11.18-6a11.89,11.89,0,0,0-10.31-5h0A11.89,11.89,0,0,0,.44,41.87L0,42.73l.53.82a11.91,11.91,0,0,0,9.93,5.36l.68,0a11.89,11.89,0,0,0,9-5L40.83,55V76.12L36,73.88l-1.6-7.3A6.39,6.39,0,0,0,28.8,55.2a6.29,6.29,0,0,0-3.65,3.27,6.39,6.39,0,0,0,5.78,9.16l.25,0,1,4.48L18.3,65.64A11.84,11.84,0,0,0,2.77,53.33l-.93.3-.19.95A11.88,11.88,0,0,0,5.37,65.85h0a11.85,11.85,0,0,0,7.91,3,12,12,0,0,0,3-.43l6.55,3-5.06,3a6.38,6.38,0,0,0-10,7.7h0a6.38,6.38,0,0,0,11.73-4.79l7.08-4.12,9.76,4.54-3.44,2.59a6.39,6.39,0,0,0-7.81,10A6.38,6.38,0,0,0,35.2,82.82l4.59-3.46,1,.48V93.19a6.38,6.38,0,0,0,1.65,12.53h0A6.34,6.34,0,0,0,47,103.88h0a6.36,6.36,0,0,0-2.81-10.7V79.83l1-.47,4.59,3.46a6.36,6.36,0,1,0,2.32-2.48l-3.45-2.59,9.76-4.54,7.08,4.12a6.39,6.39,0,0,0,11.73,4.79h0a6.38,6.38,0,0,0-10-7.7l-5.06-3,6.55-3a12,12,0,0,0,3,.43,11.85,11.85,0,0,0,7.91-3h0a11.88,11.88,0,0,0,3.72-11.27l-.19-.95-.93-.3A11.84,11.84,0,0,0,66.7,65.64L52.83,72.09l1-4.48.25,0a6.39,6.39,0,0,0,5.78-9.16A6.29,6.29,0,0,0,56.2,55.2a6.39,6.39,0,0,0-5.61,11.38L49,73.88Zm6-40.48a3,3,0,0,1,2.94-2.29,3.18,3.18,0,0,1,.74.09,3,3,0,0,1,2.19,3.68,3,3,0,0,1-3.67,2.19A3,3,0,0,1,50.22,35.63Zm24.23,3.09a8.53,8.53,0,0,1,6.6,3.79,8.5,8.5,0,0,1-13.59-.78A8.54,8.54,0,0,1,74.45,38.72ZM58.34,16.43a8.57,8.57,0,0,1,7.51-1.24,8.49,8.49,0,0,1-11,8A8.54,8.54,0,0,1,58.34,16.43ZM22.65,22a8.54,8.54,0,0,1-3.5-6.76,8.49,8.49,0,0,1,11,8A8.54,8.54,0,0,1,22.65,22Zm6.26,15.16a3,3,0,0,1,2.19-3.68,3,3,0,0,1,3.68,2.2,3,3,0,0,1-.34,2.29,2.93,2.93,0,0,1-1.86,1.38A3,3,0,0,1,30.29,39,3.05,3.05,0,0,1,28.91,37.11Zm-18,8.41a8.53,8.53,0,0,1-7-3,8.5,8.5,0,0,1,13.59-.78A8.54,8.54,0,0,1,10.94,45.52ZM28.07,62.24a3,3,0,0,1,1.85-3.86h0a2.92,2.92,0,0,1,1-.17,3,3,0,0,1,2.73,4.33,3,3,0,0,1-5.58-.3ZM14.82,81.6a3,3,0,1,1-3-5.27,3.08,3.08,0,0,1,2.3-.28,3,3,0,0,1,.69,5.55Zm16.91,6.33a3,3,0,0,1-4.28,0h0a3,3,0,0,1,2.13-5.18,3,3,0,0,1,2.15,5.15ZM15,65.32a8.55,8.55,0,0,1-7.35-2h0A8.56,8.56,0,0,1,4.8,56.27a8.49,8.49,0,0,1,10.16,9ZM39,10.8A8.56,8.56,0,0,1,42.35,4a8.49,8.49,0,0,1,.14,13.6A8.5,8.5,0,0,1,39,10.8Zm5.63,90.68a3,3,0,0,1-4.28,0,3,3,0,0,1,0-4.28,3,3,0,0,1,2.12-.87h0a3,3,0,0,1,2.14.9A3,3,0,0,1,44.64,101.48Zm10.78-18.7A3,3,0,0,1,57.55,88h0a3,3,0,1,1-2.13-5.18ZM69,77.48a3,3,0,0,1,2.64-1.54,3.1,3.1,0,0,1,1.49.39A3,3,0,1,1,69,77.48ZM51.22,60.23a3,3,0,0,1,2.86-2,2.92,2.92,0,0,1,1,.17h0a3,3,0,0,1,1.85,3.86,3,3,0,1,1-5.71-2Zm21.63-2a8.53,8.53,0,0,1,7.35-2,8.49,8.49,0,0,1-10.16,9A8.5,8.5,0,0,1,72.85,58.25Z" style="fill:#73b32a"/></g></g></svg>