<svg xmlns="http://www.w3.org/2000/svg" viewBox="0 0 172.93 124.78"><title>LibCST-logo-vertical</title><g id="Layer_2" data-name="Layer 2"><g id="Artwork"><path d="M87.42,45.15V32.63L99.67,26A7.08,7.08,0,0,0,105,29h.41a7,7,0,0,0,5.88-3.18l.32-.48-.26-.52A7,7,0,0,0,105.48,21h0a7,7,0,0,0-6.12,2.94l-6.63,3.58.21-2.13a3.88,3.88,0,0,0,1.74-.53,3.8,3.8,0,0,0-1-6.94h0a3.79,3.79,0,0,0-2.68,7l-.38,3.71-3.18,1.72V18.25l5.4-2.7a7,7,0,0,0,9.4-7.35l-.06-.57-.53-.23a7.06,7.06,0,0,0-7,.73h0a7.08,7.08,0,0,0-2.89,5.72L87.42,16V12.14A7,7,0,0,0,86.8.28L86.3,0l-.5.29a7,7,0,0,0-.38,11.86V16l-4.34-2.17a7.08,7.08,0,0,0-2.89-5.72h0a7.08,7.08,0,0,0-7-.73l-.52.23-.06.57A7,7,0,0,0,80,15.55l5.42,2.71V30.37l-3.2-1.73-.38-3.71a3.79,3.79,0,0,0,1.51-1.41,3.75,3.75,0,0,0,.42-2.87,3.81,3.81,0,0,0-4.61-2.76h0a3.8,3.8,0,0,0-1,6.94,3.88,3.88,0,0,0,1.73.53l.22,2.13-6.63-3.58A7.05,7.05,0,0,0,67.34,21h0a7,7,0,0,0-5.88,3.86l-.26.52.32.48A7,7,0,0,0,67.4,29h.4a7.09,7.09,0,0,0,5.35-3l12.27,6.62V45.15l-2.86-1.33-1-4.33a3.79,3.79,0,0,0,1.51-4.43A3.8,3.8,0,0,0,76,37.58a3.81,3.81,0,0,0,3.59,2.54l.15,0,.58,2.66-8.22-3.82a7,7,0,0,0-9.22-7.31l-.55.18-.11.57a7,7,0,0,0,2.21,6.68h0a7,7,0,0,0,4.69,1.78,7.3,7.3,0,0,0,1.8-.25l3.88,1.81-3,1.74a3.79,3.79,0,0,0-6,4.57h0a3.82,3.82,0,0,0,3.31,1.93,3.71,3.71,0,0,0,1.86-.5,3.78,3.78,0,0,0,1.79-4.27L77,43.42l5.79,2.7-2,1.54a3.79,3.79,0,0,0-4.63,5.93,3.75,3.75,0,0,0,2.67,1.1,3.78,3.78,0,0,0,3.33-5.57l2.72-2,.62.29v7.92a3.72,3.72,0,0,0-1.67.94,3.8,3.8,0,0,0,2.65,6.49h0a3.82,3.82,0,0,0,2.67-1.09h0a3.78,3.78,0,0,0-1.67-6.35V47.35l.6-.28,2.72,2a3.78,3.78,0,0,0,3.33,5.57,3.75,3.75,0,0,0,2.67-1.1,3.79,3.79,0,0,0-4.63-5.93l-2-1.54,5.79-2.7,4.2,2.45a3.79,3.79,0,0,0,7,2.84h0a3.79,3.79,0,0,0-6-4.57l-3-1.74L102,40.59a7.29,7.29,0,0,0,1.79.25,7,7,0,0,0,4.69-1.78h0a7,7,0,0,0,2.21-6.68l-.12-.57-.54-.18a7,7,0,0,0-9.22,7.31l-8.22,3.82.58-2.66.15,0a3.8,3.8,0,0,0,1.27-7.38,3.8,3.8,0,0,0-4.84,2.32,3.79,3.79,0,0,0,1.51,4.43l-.95,4.33Zm3.57-24a1.79,1.79,0,0,1,1.74-1.35,1.65,1.65,0,0,1,.44,0A1.8,1.8,0,0,1,94.47,22a1.73,1.73,0,0,1-.82,1.1,1.75,1.75,0,0,1-1.36.2A1.8,1.8,0,0,1,91,21.13ZM105.36,23a5.06,5.06,0,0,1,3.91,2.26,5,5,0,0,1-8-.47A5.08,5.08,0,0,1,105.36,23ZM95.81,9.75A5.05,5.05,0,0,1,100.26,9a5,5,0,0,1-6.53,4.74A5,5,0,0,1,95.81,9.75ZM74.64,13a5,5,0,0,1-2.08-4,5,5,0,0,1,6.53,4.74A5,5,0,0,1,74.64,13Zm3.71,9a1.8,1.8,0,0,1,1.3-2.18,1.8,1.8,0,0,1,2.18,1.3,1.79,1.79,0,0,1-2.66,2A1.7,1.7,0,0,1,78.35,22ZM67.69,27a5,5,0,0,1-4.14-1.78,5,5,0,0,1,8-.47A5.05,5.05,0,0,1,67.69,27Zm10.16,9.92a1.78,1.78,0,0,1,1.09-2.29h0a1.8,1.8,0,0,1,.6-.1,1.77,1.77,0,0,1,.78.17,1.82,1.82,0,0,1,.84,2.4,1.79,1.79,0,0,1-3.31-.18ZM70,48.4a1.79,1.79,0,1,1-1.77-3.12,1.75,1.75,0,0,1,1.36-.17A1.79,1.79,0,0,1,70,48.4Zm10,3.76a1.8,1.8,0,0,1-2.54,0h0A1.76,1.76,0,0,1,77,50.91a1.79,1.79,0,0,1,1.8-1.81,1.78,1.78,0,0,1,1.26.52A1.8,1.8,0,0,1,80,52.16Zm-10-13.42a5,5,0,0,1-4.35-1.17h0a5,5,0,0,1-1.67-4.19,5,5,0,0,1,6,5.36ZM84.34,6.4a5.06,5.06,0,0,1,2-4.05,5,5,0,0,1,.08,8.07A5.06,5.06,0,0,1,84.34,6.4Zm3.34,53.79a1.79,1.79,0,1,1-2.52-2.55,1.74,1.74,0,0,1,1.26-.52h0a1.79,1.79,0,0,1,1.27.53A1.81,1.81,0,0,1,87.68,60.19ZM94.07,49.1a1.79,1.79,0,0,1,1.8,1.81,1.76,1.76,0,0,1-.53,1.26h0a1.8,1.8,0,0,1-2.53-2.55A1.78,1.78,0,0,1,94.07,49.1ZM102.15,46a1.78,1.78,0,0,1,1.57-.91,1.75,1.75,0,0,1,.88.23,1.79,1.79,0,1,1-2.45.68ZM91.58,35.73a1.8,1.8,0,0,1,.92-1,1.77,1.77,0,0,1,.78-.17,1.7,1.7,0,0,1,.59.1h0a1.78,1.78,0,0,1,1,.91A1.83,1.83,0,0,1,95,36.92a1.8,1.8,0,0,1-3.39-1.19Zm12.83-1.18a5,5,0,0,1,4.36-1.17,5.07,5.07,0,0,1-1.67,4.19,5,5,0,0,1-4.35,1.17A5,5,0,0,1,104.41,34.55Z" style="fill:#73b32a"/><path d="M23.48,124.11H0V81.86H5v38H23.48Z" style="fill:#414042"/><path d="M30.9,88.86a3,3,0,1,1,2.84-3A2.7,2.7,0,0,1,30.9,88.86ZM33.26,95v29.09H28.61V95Z" style="fill:#414042"/><path d="M70,109.5c0,9.18-5.68,15.28-13.52,15.28a11.16,11.16,0,0,1-10.45-6.28l-.18,5.61H41.53V79.87l4.64-1v21.43a11,11,0,0,1,10.33-6C64.4,94.23,70,100.33,70,109.5ZM55.65,98.28c-6,0-9.48,4.65-9.48,11.22V110c.19,6.28,3.57,10.74,9.48,10.74s9.54-4.71,9.54-11.23S61.63,98.28,55.65,98.28Z" style="fill:#414042"/><path d="M80.46,103.11c0,10.62,6.34,17.44,16.11,17.44a23.63,23.63,0,0,0,11-2.65l1.57,3.86a27.72,27.72,0,0,1-12.74,3c-13.16,0-21.12-9.06-21.12-21.67C75.27,90,83.29,81,96.33,81a24.63,24.63,0,0,1,12.26,3L107,87.89a20.65,20.65,0,0,0-10.39-2.71C86.8,85.18,80.46,92.12,80.46,103.11Z" style="fill:#73b32a"/><path d="M139.25,113.25c0,6.58-4.17,11.47-14.07,11.47-4.34,0-9.59-1-12.25-2.36l1-4.1a28.58,28.58,0,0,0,11.28,2.17c6.58,0,9.12-2.84,9.12-7,0-11.29-20.59-8.27-20.59-22.4C113.71,83.55,119.45,81,127,81a32.74,32.74,0,0,1,11.34,1.93l-1,4.11a26.4,26.4,0,0,0-9.66-1.81c-3.62,0-9,.42-9,5.67C118.66,101.36,139.25,98.58,139.25,113.25Z" style="fill:#73b32a"/><path d="M155.36,124.11v-38H142.75V81.86h30.18v4.28H160.31v38Z" style="fill:#73b32a"/></g></g></svg>